HIERARCHY
ROOT SpineBase
{
  OFFSET 0.000000 0.000000 0.000000
  CHANNELS 6 Xposition Yposition Zposition Zrotation Xrotation Yrotation
  JOINT SpineMid
  {
    OFFSET 0.000000 27.150025 -0.000000
    CHANNELS 3 Zrotation Xrotation Yrotation
    JOINT SpineShoulder
    {
      OFFSET 0.143810 19.921117 -0.599282
      CHANNELS 3 Zrotation Xrotation Yrotation
      JOINT Neck
      {
        OFFSET 0.057248 6.514162 -0.488224
        CHANNELS 3 Zrotation Xrotation Yrotation
        JOINT Head
        {
          OFFSET 3.116713 11.823373 -2.938221
          CHANNELS 3 Zrotation Xrotation Yrotation
          End Site
          {
            OFFSET 0 0 0
          }
        }
      }
      JOINT ShoulderLeft
      {
        OFFSET -13.103450 -4.747047 -8.506558
        CHANNELS 3 Zrotation Xrotation Yrotation
        JOINT ElbowLeft
        {
          OFFSET -9.064488 -19.491252 -1.818755
          CHANNELS 3 Zrotation Xrotation Yrotation
          JOINT WristLeft
          {
            OFFSET 9.786198 -15.986480 -13.969732
            CHANNELS 3 Zrotation Xrotation Yrotation
            JOINT HandLeft
            {
              OFFSET 4.386203 -6.106869 -5.782085
              CHANNELS 3 Zrotation Xrotation Yrotation
              JOINT HandTipLeft
              {
                OFFSET 3.932424 -5.975995 -1.493678
                CHANNELS 3 Zrotation Xrotation Yrotation
                End Site
                {
                  OFFSET 0 0 0
                }
              }
              JOINT ThumbLeft
              {
                OFFSET -0.229607 2.772257 -5.418622
                CHANNELS 3 Zrotation Xrotation Yrotation
                End Site
                {
                  OFFSET 0 0 0
                }
              }
            }
          }
        }
      }
      JOINT ShoulderRight
      {
        OFFSET 14.538588 -2.263847 6.387771
        CHANNELS 3 Zrotation Xrotation Yrotation
        JOINT ElbowRight
        {
          OFFSET 11.306403 -20.598324 8.589268
          CHANNELS 3 Zrotation Xrotation Yrotation
          JOINT WristRight
          {
            OFFSET 13.463627 -16.657423 -9.135518
            CHANNELS 3 Zrotation Xrotation Yrotation
            JOINT HandRight
            {
              OFFSET 2.142964 -3.179047 -2.051272
              CHANNELS 3 Zrotation Xrotation Yrotation
              JOINT HandTipRight
              {
                OFFSET 2.263152 -6.349017 -4.027544
                CHANNELS 3 Zrotation Xrotation Yrotation
                End Site
                {
                  OFFSET 0 0 0
                }
              }
              JOINT ThumbRight
              {
                OFFSET 1.802757 4.168953 -4.621342
                CHANNELS 3 Zrotation Xrotation Yrotation
                End Site
                {
                  OFFSET 0 0 0
                }
              }
            }
          }
        }
      }
    }
  }
  JOINT HipLeft
  {
    OFFSET -5.972703 -0.073681 -5.461719
    CHANNELS 3 Zrotation Xrotation Yrotation
    JOINT KneeLeft
    {
      OFFSET 18.686522 -8.690183 -25.822820
      CHANNELS 3 Zrotation Xrotation Yrotation
      JOINT AnkleLeft
      {
        OFFSET 0.511519 -37.593901 8.840492
        CHANNELS 3 Zrotation Xrotation Yrotation
        JOINT FootLeft
        {
          OFFSET 4.059782 -7.637932 -9.254650
          CHANNELS 3 Zrotation Xrotation Yrotation
          End Site
          {
            OFFSET 0 0 0
          }
        }
      }
    }
  }
  JOINT HipRight
  {
    OFFSET 6.201598 -0.604008 -1.216992
    CHANNELS 3 Zrotation Xrotation Yrotation
    JOINT KneeRight
    {
      OFFSET 27.988282 -7.160820 -18.389849
      CHANNELS 3 Zrotation Xrotation Yrotation
      JOINT AnkleRight
      {
        OFFSET -2.620207 -33.537675 9.857359
        CHANNELS 3 Zrotation Xrotation Yrotation
        JOINT FootRight
        {
          OFFSET 3.885101 -7.681673 -8.831843
          CHANNELS 3 Zrotation Xrotation Yrotation
          End Site
          {
            OFFSET 0 0 0
          }
        }
      }
    }
  }
}
MOTION
Frames: 9
Frame Time: 0.033333
-14.090098 55.805854 408.023189 -0.000000 -0.000000 -19.221767 -0.000000 0.000000 19.221767 -0.000000 0.000000 0.000000 -0.000000 0.000000 0.000000 0.000000 0.000000 0.000000 -0.000000 0.000000 0.000000 -0.000000 0.000000 0.000000 -0.000000 0.000000 0.000000 -0.000000 0.000000 0.000000 0.000000 0.000000 0.000000 0.000000 0.000000 0.000000 -0.000000 0.000000 0.000000 -0.000000 0.000000 0.000000 -0.000000 0.000000 0.000000 -0.000000 0.000000 0.000000 0.000000 0.000000 0.000000 0.000000 0.000000 0.000000 -0.000000 0.000000 19.221767 -0.000000 0.000000 0.000000 -0.000000 0.000000 0.000000 0.000000 0.000000 0.000000 -0.000000 0.000000 19.221767 -0.000000 0.000000 0.000000 -0.000000 0.000000 0.000000 0.000000 0.000000 0.000000
-14.119090 55.834864 408.042143 -0.037584 0.006631 -18.981340 0.037697 0.005954 18.981340 -0.000000 0.000000 0.000000 -0.000000 0.000000 0.000000 0.000000 0.000000 0.000000 -0.000000 0.000000 0.000000 1.176733 1.736164 0.016410 -3.068837 -3.467662 0.416375 2.418810 1.030162 -1.172952 0.000000 0.000000 0.000000 0.000000 0.000000 0.000000 -0.000000 0.000000 0.000000 -1.723203 -0.934800 0.178462 1.011745 -0.042489 -0.400656 -2.023878 -2.166763 0.804103 0.000000 0.000000 0.000000 0.000000 0.000000 0.000000 0.037697 0.005954 18.981340 -0.000000 0.000000 0.000000 -0.141778 -1.081232 -0.409218 0.000000 0.000000 0.000000 0.037697 0.005954 18.981340 -0.000000 0.000000 0.000000 -0.000000 0.000000 0.000000 0.000000 0.000000 0.000000
-14.140908 55.858296 408.061986 -0.071997 0.000916 -18.780367 0.068458 0.022312 18.780354 -0.000000 0.000000 0.000000 -0.000000 0.000000 0.000000 0.000000 0.000000 0.000000 -0.195790 0.720020 -0.314917 2.233511 2.397250 0.393200 -5.561002 -6.372306 0.524319 4.568179 2.279246 -1.994673 0.000000 0.000000 0.000000 0.000000 0.000000 0.000000 -0.068850 -0.799879 -0.467042 -2.562125 -0.543765 0.858214 2.028452 -0.071265 -0.954772 -3.654729 -3.961991 1.312172 0.000000 0.000000 0.000000 0.000000 0.000000 0.000000 0.068458 0.022312 18.780354 -0.000000 0.000000 0.000000 -0.260613 -1.971870 -0.753530 0.000000 0.000000 0.000000 0.068458 0.022312 18.780354 -0.000000 0.000000 0.000000 -0.000000 0.000000 0.000000 0.000000 0.000000 0.000000
-14.155553 55.876149 408.082717 -0.103244 -0.017167 -18.618410 0.092360 0.049230 18.618355 -0.000000 0.000000 0.000000 -0.000000 0.000000 0.000000 0.000000 0.000000 0.000000 -0.287442 0.979310 -0.425328 2.906862 3.179099 0.594560 -7.397073 -8.637744 0.387015 6.346295 3.664016 -2.404373 0.000000 0.000000 0.000000 0.000000 0.000000 0.000000 -0.106582 -1.181583 -0.691506 -2.789883 -0.102925 1.311373 3.293261 0.076914 -1.656189 -5.054265 -5.532172 1.553813 0.000000 0.000000 0.000000 0.000000 0.000000 0.000000 0.092360 0.049230 18.618355 -0.000000 0.000000 0.000000 -0.349618 -2.648542 -1.022767 0.000000 0.000000 0.000000 0.092360 0.049230 18.618355 -0.000000 0.000000 0.000000 -0.000000 0.000000 0.000000 0.000000 0.000000 0.000000
-14.163025 55.888424 408.104337 -0.131327 -0.047645 -18.495099 0.109430 0.086844 18.494961 -0.000000 0.000000 0.000000 -0.000000 0.000000 0.000000 0.000000 0.000000 0.000000 -0.375980 1.173748 -0.505683 3.307590 3.707178 0.811416 -8.493346 -10.199910 0.064531 7.655825 5.117478 -2.345298 0.000000 0.000000 0.000000 0.000000 0.000000 0.000000 -0.146323 -1.550887 -0.909812 -2.426467 0.782082 1.790689 4.820699 0.397162 -2.481035 -6.176116 -6.890673 1.502209 0.000000 0.000000 0.000000 0.000000 0.000000 0.000000 0.109430 0.086844 18.494961 -0.000000 0.000000 0.000000 -0.403089 -3.093047 -1.208669 0.000000 0.000000 0.000000 0.109430 0.086844 18.494961 -0.000000 0.000000 0.000000 -0.000000 0.000000 0.000000 0.000000 0.000000 0.000000
-14.163324 55.895121 408.126845 -0.156249 -0.090555 -18.410129 0.119654 0.135266 18.409864 -0.000000 0.000000 0.000000 -0.000000 0.000000 0.000000 0.000000 0.000000 0.000000 -0.462020 1.304488 -0.556672 3.440970 3.987437 1.050995 -8.780489 -11.015345 -0.393930 8.416292 6.593958 -1.776483 0.000000 0.000000 0.000000 0.000000 0.000000 0.000000 -0.187932 -1.907631 -1.121874 -1.437682 2.175850 2.290948 6.407032 0.725075 -3.384108 -6.743770 -7.887786 1.095274 0.000000 0.000000 0.000000 0.000000 0.000000 0.000000 0.119654 0.135266 18.409864 -0.000000 0.000000 0.000000 -0.417074 -3.293202 -1.305489 0.000000 0.000000 0.000000 0.119654 0.135266 18.409864 -0.000000 0.000000 0.000000 -0.000000 0.000000 0.000000 0.000000 0.000000 0.000000
-14.140381 55.899242 408.154981 -0.139172 -0.063882 -18.379787 0.111930 0.104506 18.379607 -0.000000 0.000000 0.000000 0.773479 0.304266 0.110228 0.000000 0.000000 0.000000 -0.506303 1.195365 -0.501881 2.993138 3.352062 1.009703 -7.557528 -9.839962 -0.496449 8.158555 7.898380 -0.458076 0.000000 0.000000 0.000000 0.000000 0.000000 0.000000 -0.237360 -2.404165 -1.412966 0.381264 4.689907 3.067623 7.673544 0.345471 -4.566091 -6.126387 -8.055292 0.269712 0.000000 0.000000 0.000000 0.000000 0.000000 0.000000 0.111930 0.104506 18.379607 -0.000000 0.000000 0.000000 -0.393382 -3.461224 -1.430442 0.000000 0.000000 0.000000 0.111930 0.104506 18.379607 -0.000000 0.000000 0.000000 -0.000000 0.000000 0.000000 0.000000 0.000000 0.000000
-14.119275 55.898228 408.175309 -0.143510 -0.113053 -18.404965 0.100475 0.152581 18.404690 -0.000000 0.000000 0.000000 0.940601 -0.096147 0.260396 0.000000 0.000000 0.000000 -0.439474 1.273425 -0.544803 2.263594 2.942425 1.439604 -5.678751 -8.244408 -0.887206 7.687915 9.263460 1.271801 0.000000 0.000000 0.000000 0.000000 0.000000 0.000000 -0.138274 -3.016582 -1.699818 3.107936 8.396804 3.805467 10.621265 1.851945 -5.548993 -1.910221 -8.377122 -3.153460 0.000000 0.000000 0.000000 0.000000 0.000000 0.000000 0.100475 0.152581 18.404690 -0.000000 0.000000 0.000000 -0.412404 -3.273182 -1.299778 0.000000 0.000000 0.000000 0.100475 0.152581 18.404690 -0.000000 0.000000 0.000000 -0.000000 0.000000 0.000000 0.000000 0.000000 0.000000
-14.109878 55.895085 408.161038 -0.133796 -0.156882 -18.361429 0.077565 0.191041 18.361117 -0.000000 0.000000 0.000000 0.541316 -0.726701 0.329412 0.000000 0.000000 0.000000 -0.338423 1.391520 -0.609940 2.041891 2.752404 1.568267 -6.091932 -9.416309 -1.510282 7.870830 11.184373 2.057037 0.000000 0.000000 0.000000 0.000000 0.000000 0.000000 -0.552636 -3.817350 -2.318575 9.301879 14.681300 4.054989 6.546773 -3.511523 -6.822973 0.652113 -4.757133 -3.408887 0.000000 0.000000 0.000000 0.000000 0.000000 0.000000 0.077565 0.191041 18.361117 -0.000000 0.000000 0.000000 -0.354505 -2.826941 -1.117317 0.000000 0.000000 0.000000 0.077565 0.191041 18.361117 -0.000000 0.000000 0.000000 1.187205 1.114873 -0.799538 0.000000 0.000000 0.000000
